<svg height="476pt" viewBox="0 -12 476.12189 476" width="476pt" xmlns="http://www.w3.org/2000/svg"><path d="m78.152344 22.632812c-1.949219 23.128907-26.050782 26.78125-26.050782 26.78125 20.695313.972657 25.847657 28.117188 25.847657 28.117188.445312-19.351562 26.644531-28.402344 26.644531-28.402344-19.625-1.175781-26.441406-26.496094-26.441406-26.496094zm0 0" fill="#d7e057"/><path d="m104.773438 46.132812c-17.207032-1.027343-23.664063-24.046874-23.726563-24.28125-.378906-1.402343-1.699219-2.320312-3.167969-2.203124-1.449218.132812-2.597656 1.285156-2.71875 2.734374-1.71875 20.429688-22.625 23.925782-23.507812 24.066407-1.523438.230469-2.628906 1.578125-2.546875 3.121093.082031 1.539063 1.316406 2.769532 2.859375 2.84375 18.050781.847657 22.992187 25.433594 23.039062 25.683594.277344 1.421875 1.519532 2.433594 2.945313 2.433594.085937 0 .167969-.003906.253906-.011719 1.527344-.128906 2.714844-1.386719 2.75-2.917969.386719-17.015624 24.382813-25.554687 24.625-25.640624 1.351563-.46875 2.183594-1.828126 1.988281-3.246094-.199218-1.414063-1.367187-2.496094-2.792968-2.582032zm-27.132813 20.691407c-2.710937-6.261719-7.417969-13.8125-15.171875-17.753907 5.863281-2.808593 12.816406-7.824218 16.402344-16.542968 3.101562 6.140625 8.398437 13.757812 16.667968 17.441406-6.015624 3.28125-13.847656 8.8125-17.898437 16.855469zm0 0" fill="#3a312a"/><path d="m34.753906 56.597656c-1.378906 16.355469-18.425781 18.941406-18.425781 18.941406 14.636719.6875 18.285156 19.886719 18.285156 19.886719.3125-13.691406 18.84375-20.089843 18.84375-20.089843-13.882812-.832032-18.703125-18.738282-18.703125-18.738282zm0 0" fill="#d7e057"/><path d="m53.636719 72.339844c-11.535157-.691406-15.945313-16.371094-15.988281-16.53125-.382813-1.402344-1.730469-2.324219-3.164063-2.203125-1.453125.128906-2.597656 1.285156-2.722656 2.738281-1.15625 13.742188-15.289063 16.132812-15.878907 16.226562-1.527343.230469-2.628906 1.578126-2.546874 3.121094.078124 1.539063 1.3125 2.769532 2.855468 2.84375 12.070313.566406 15.445313 17.285156 15.476563 17.449219.269531 1.429687 1.515625 2.441406 2.945312 2.441406.082031 0 .164063 0 .246094-.007812 1.53125-.128907 2.71875-1.386719 2.753906-2.921875.265625-11.417969 16.664063-17.269532 16.828125-17.324219 1.351563-.46875 2.1875-1.828125 1.992188-3.246094-.199219-1.417969-1.367188-2.5-2.796875-2.585937zm-19.167969 13.589844c-1.851562-3.773438-4.683594-7.894532-8.894531-10.558594 3.707031-2.082032 7.394531-5.261719 9.738281-9.835938 2.117188 3.75 5.308594 7.910156 9.882812 10.449219-3.699218 2.203125-7.976562 5.480469-10.726562 9.945313zm0 0" fill="#3a312a"/><path d="m34.753906 3.28125c-1.378906 16.355469-18.425781 18.9375-18.425781 18.9375 14.636719.6875 18.285156 19.890625 18.285156 19.890625.3125-13.691406 18.84375-20.089844 18.84375-20.089844-13.882812-.832031-18.703125-18.738281-18.703125-18.738281zm0 0" fill="#d7e057"/><path d="m53.636719 19.023438c-11.535157-.6875-15.945313-16.371094-15.988281-16.527344-.382813-1.40625-1.730469-2.324219-3.164063-2.207032-1.453125.132813-2.597656 1.289063-2.722656 2.738282-1.15625 13.742187-15.289063 16.132812-15.878907 16.226562-1.527343.230469-2.628906 1.582032-2.546874 3.121094.078124 1.542969 1.3125 2.769531 2.855468 2.84375 12.070313.566406 15.445313 17.289062 15.476563 17.453125.269531 1.425781 1.515625 2.4375 2.945312 2.4375.082031 0 .164063 0 .246094-.007813 1.53125-.128906 2.71875-1.386718 2.753906-2.921874.265625-11.417969 16.664063-17.265626 16.828125-17.324219 1.351563-.46875 2.1875-1.824219 1.992188-3.242188-.199219-1.417969-1.367188-2.503906-2.796875-2.589843zm-19.167969 13.59375c-1.851562-3.773438-4.683594-7.898438-8.894531-10.5625 3.707031-2.082032 7.394531-5.257813 9.738281-9.832032 2.117188 3.75 5.308594 7.910156 9.882812 10.449219-3.699218 2.199219-7.976562 5.476563-10.726562 9.945313zm0 0" fill="#3a312a"/><path d="m241.460938 14.332031c-1.960938-1.660156-4.839844-1.660156-6.800782 0l-197.597656 167.597657v267.101562h402v-267.101562zm0 0" fill="#8ac6dd"/><path d="m441.003906 179.640625-197.605468-167.601563c-3.089844-2.617187-7.582032-2.617187-10.679688.003907l-197.601562 167.597656c-.671876.570313-1.054688 1.410156-1.054688 2.289063v48.648437c0 1.65625 1.34375 3 3 3s3-1.34375 3-3v-47.257813l196.535156-166.699218c.851563-.71875 2.078125-.71875 2.921875-.003906l196.542969 166.703124v262.710938h-396v-185.878906c0-1.65625-1.34375-3-3-3s-3 1.34375-3 3v188.878906c0 1.65625 1.34375 3 3 3h402c1.65625 0 3-1.34375 3-3v-267.101562c0-.882813-.386719-1.71875-1.058594-2.289063zm0 0" fill="#3a312a"/><path d="m468.179688 192.269531-217.667969-184.628906c-7.214844-6.105469-17.683594-6.109375-24.90625.007813l-217.664063 184.621093c-5.894531 5.003907-6.617187 13.839844-1.617187 19.734375 5.003906 5.894532 13.839843 6.617188 19.734375 1.617188l212.003906-179.820313 212 179.820313c2.632812 2.234375 5.851562 3.324218 9.050781 3.324218 3.96875 0 7.914063-1.679687 10.683594-4.941406 5.003906-5.894531 4.277344-14.730468-1.617187-19.734375zm0 0" fill="#f16c7a"/><path d="m476.0625 201.554688c-.371094-4.523438-2.480469-8.632813-5.945312-11.574219l-217.667969-184.625c-8.347657-7.0625-20.449219-7.058594-28.785157.007812l-217.660156 184.617188c-3.464844 2.941406-5.574218 7.050781-5.9453122 11.574219-.3749998 4.527343 1.0390622 8.925781 3.9765622 12.386718 6.066406 7.152344 16.8125 8.03125 23.964844 1.964844l210.0625-178.175781 210.058594 178.175781c3.070312 2.605469 6.972656 4.039062 10.992187 4.039062 5.003907 0 9.730469-2.1875 12.96875-6.003906 2.9375-3.460937 4.355469-7.859375 3.980469-12.386718zm-8.550781 8.503906c-2.097657 2.46875-5.15625 3.886718-8.398438 3.886718-2.597656 0-5.121093-.929687-7.109375-2.613281l-212-179.820312c-.5625-.476563-1.253906-.714844-1.941406-.714844-.691406 0-1.382812.238281-1.945312.714844l-212 179.824219c-4.628907 3.925781-11.582032 3.351562-15.507813-1.273438-1.898437-2.242188-2.8125-5.085938-2.574219-8.015625.242188-2.929687 1.609375-5.585937 3.851563-7.488281l217.660156-184.617188c6.089844-5.164062 14.933594-5.167968 21.023437-.007812l217.667969 184.625c2.238281 1.902344 3.605469 4.5625 3.847657 7.488281.238281 2.929687-.675782 5.773437-2.574219 8.011719zm0 0" fill="#3a312a"/><path d="m238.460938 178.632812c-32.046876 0-58.027344 31.550782-58.027344 58.152344 0 18.617188 12.730468 26.472656 31.351562 29.515625l16.773438 1.550781c3.21875.121094 6.523437.179688 9.902344.179688 32.046874 0 58.03125-4.644531 58.03125-31.246094-.003907-26.601562-25.984376-58.152344-58.03125-58.152344zm0 0" fill="#87796f"/><path d="m238.460938 175.632812c-33.804688 0-61.03125 33.457032-61.03125 61.152344 0 18.128906 11.078124 28.75 33.871093 32.476563.070313.011719.136719.019531.207031.027343l16.773438 1.550782c.054688.003906.109375.007812.160156.007812 3.160156.121094 6.53125.183594 10.019532.183594 30.179687 0 61.03125-4.070312 61.03125-34.246094 0-27.695312-27.222657-61.152344-61.03125-61.152344zm0 89.398438c-3.382813 0-6.648438-.058594-9.707032-.175781l-16.589844-1.535157c-19.867187-3.269531-28.734374-11.457031-28.734374-26.535156 0-24.980468 24.546874-55.152344 55.03125-55.152344 30.484374 0 55.03125 30.167969 55.03125 55.152344 0 23.441406-22 28.246094-55.03125 28.246094zm0 0" fill="#3a312a"/><path d="m238.460938 100.03125c-12.550782 0-22.726563 13.058594-22.726563 29.164062 0 16.109376 10.175781 29.167969 22.726563 29.167969 12.550781 0 22.726562-13.058593 22.726562-29.167969 0-16.105468-10.175781-29.164062-22.726562-29.164062zm0 0" fill="#87796f"/><path d="m238.460938 97.03125c-14.1875 0-25.726563 14.425781-25.726563 32.164062 0 17.738282 11.542969 32.167969 25.726563 32.167969 14.1875 0 25.726562-14.429687 25.726562-32.167969 0-17.738281-11.539062-32.164062-25.726562-32.164062zm0 58.328125c-10.875 0-19.726563-11.738281-19.726563-26.164063 0-14.429687 8.851563-26.167968 19.726563-26.167968s19.726562 11.738281 19.726562 26.167968c0 14.425782-8.847656 26.164063-19.726562 26.164063zm0 0" fill="#3a312a"/><path d="m193.871094 141.679688c-7.523438-14.242188-22.621094-21.035157-33.71875-15.171876-11.097656 5.863282-13.992188 22.164063-6.46875 36.40625 7.523437 14.238282 22.621094 21.03125 33.71875 15.167969s13.996094-22.160156 6.46875-36.402343zm0 0" fill="#87796f"/><path d="m196.523438 140.277344c-3.949219-7.476563-9.964844-13.320313-16.941407-16.460938-7.230469-3.25-14.628906-3.238281-20.832031.039063-6.203125 3.277343-10.382812 9.378906-11.769531 17.1875-1.339844 7.53125.097656 15.796875 4.046875 23.269531 3.953125 7.476562 9.964844 13.324219 16.945312 16.460938 3.601563 1.621093 7.242188 2.429687 10.757813 2.429687 3.542969 0 6.957031-.820313 10.070312-2.46875 6.203125-3.273437 10.382813-9.378906 11.773438-17.183594 1.339843-7.53125-.097657-15.796875-4.050781-23.273437zm-1.855469 22.222656c-1.058594 5.945312-4.132813 10.539062-8.667969 12.933594-4.527344 2.394531-10.058594 2.347656-15.566406-.132813-5.761719-2.589843-10.769532-7.488281-14.097656-13.789062-3.328126-6.300781-4.550782-13.195313-3.445313-19.414063 1.054687-5.949218 4.132813-10.539062 8.667969-12.933594 2.222656-1.175781 4.6875-1.761718 7.273437-1.761718 2.679688 0 5.488281.628906 8.289063 1.890625 5.765625 2.59375 10.773437 7.492187 14.101562 13.792969 3.324219 6.296874 4.546875 13.191406 3.445313 19.414062zm0 0" fill="#3a312a"/><path d="m147.101562 185.023438c-12.824218-9.746094-29.378906-9.542969-36.972656.449218-7.59375 9.992188-3.355468 25.996094 9.472656 35.738282 12.824219 9.746093 29.378907 9.546874 36.972657-.445313s3.351562-25.996094-9.472657-35.742187zm0 0" fill="#87796f"/><path d="m148.917969 182.636719c-14.121094-10.730469-32.589844-10.273438-41.175781 1.019531-8.582032 11.296875-4.078126 29.214844 10.042968 39.945312 6.824219 5.1875 14.664063 7.757813 21.914063 7.757813 7.75 0 14.828125-2.941406 19.265625-8.777344 8.578125-11.296875 4.070312-29.214843-10.046875-39.945312zm5.265625 36.3125c-6.582032 8.660156-21.28125 8.601562-32.769532-.125-11.488281-8.726563-15.476562-22.875-8.898437-31.535157 3.273437-4.308593 8.554687-6.457031 14.453125-6.457031 5.957031 0 12.542969 2.195313 18.316406 6.582031 11.488282 8.726563 15.480469 22.875 8.898438 31.535157zm0 0" fill="#3a312a"/><path d="m317.121094 126.511719c-11.097656-5.867188-26.191406.925781-33.714844 15.171875-7.523438 14.242187-4.628906 30.539062 6.46875 36.402344 11.097656 5.863281 26.195312-.929688 33.71875-15.171876 7.523438-14.242187 4.628906-30.542968-6.472656-36.402343zm0 0" fill="#87796f"/><path d="m330.296875 141.042969c-1.386719-7.804688-5.570313-13.910157-11.773437-17.1875-12.539063-6.625-29.488282.742187-37.773438 16.421875-3.949219 7.476562-5.386719 15.742187-4.046875 23.269531 1.386719 7.808594 5.566406 13.910156 11.769531 17.1875 3.117188 1.644531 6.53125 2.46875 10.074219 2.46875 3.515625 0 7.15625-.8125 10.757813-2.429687 6.972656-3.140626 12.992187-8.984376 16.941406-16.460938 3.949218-7.472656 5.386718-15.738281 4.050781-23.269531zm-9.359375 20.46875c-3.328125 6.296875-8.332031 11.195312-14.097656 13.789062-5.503906 2.480469-11.03125 2.519531-15.566406.128907-4.53125-2.394532-7.605469-6.984376-8.664063-12.929688-1.105469-6.222656.121094-13.121094 3.449219-19.417969 6.738281-12.757812 20.050781-19 29.664062-13.921875 4.53125 2.394532 7.609375 6.988282 8.664063 12.933594 1.105469 6.21875-.117188 13.117188-3.449219 19.417969zm0 0" fill="#3a312a"/><path d="m365.992188 185.472656c-7.59375-9.992187-24.144532-10.195312-36.96875-.449218-12.824219 9.746093-17.066407 25.746093-9.472657 35.742187 7.59375 9.992187 24.144531 10.191406 36.972657.445313 12.824218-9.746094 17.0625-25.746094 9.46875-35.738282zm0 0" fill="#87796f"/><path d="m368.382812 183.65625c-4.246093-5.582031-10.953124-8.710938-18.878906-8.808594-.121094 0-.246094 0-.371094 0-7.535156 0-15.304687 2.757813-21.925781 7.789063-6.730469 5.117187-11.519531 12.003906-13.476562 19.398437-2.035157 7.664063-.8125 14.960938 3.429687 20.546875 4.4375 5.835938 11.511719 8.78125 19.265625 8.78125 7.246094 0 15.089844-2.574219 21.910157-7.757812 14.121093-10.734375 18.628906-28.652344 10.046874-39.949219zm-13.675781 35.167969c-11.488281 8.730469-26.1875 8.785156-32.769531.125-3.101562-4.078125-3.957031-9.542969-2.410156-15.378907 1.621094-6.105468 5.632812-11.84375 11.308594-16.15625 5.582031-4.242187 12.066406-6.566406 18.292968-6.566406h.300782c6.039062.074219 11.070312 2.359375 14.171874 6.441406 6.582032 8.660157 2.589844 22.808594-8.894531 31.535157zm0 0" fill="#3a312a"/><path d="m34.082031 282-22.269531 30.105469v136.925781h47.578125v-136.925781zm0 0" fill="#d7e057"/><path d="m61.6875 310.175781-25.304688-30.105469c-.59375-.703124-1.46875-1.097656-2.390624-1.066406-.917969.027344-1.773438.472656-2.320313 1.210938l-22.269531 30.105468c-.382813.515626-.589844 1.140626-.589844 1.785157v136.925781c0 1.65625 1.34375 3 3 3h47.578125c1.65625 0 3-1.34375 3-3v-136.925781c0-.707031-.25-1.390625-.703125-1.929688zm-5.296875 135.855469h-41.578125v-132.9375l19.421875-26.25 22.15625 26.355469zm0 0" fill="#3a312a"/><path d="m115.066406 282-22.269531 30.105469v136.925781h47.574219v-136.925781zm0 0" fill="#d7e057"/><path d="m142.671875 310.175781-25.308594-30.105469c-.589843-.703124-1.46875-1.097656-2.386719-1.066406-.917968.027344-1.773437.472656-2.320312 1.210938l-22.269531 30.105468c-.382813.515626-.589844 1.140626-.589844 1.785157v136.925781c0 1.65625 1.34375 3 3 3h47.578125c1.65625 0 3-1.34375 3-3v-136.925781c-.003906-.707031-.253906-1.390625-.703125-1.929688zm-5.300781 135.855469h-41.574219v-132.9375l19.421875-26.25 22.152344 26.355469zm0 0" fill="#3a312a"/><path d="m196.050781 282-22.273437 30.105469v136.925781h47.578125v-136.925781zm0 0" fill="#d7e057"/><path d="m223.65625 310.175781-25.308594-30.105469c-.59375-.703124-1.46875-1.097656-2.390625-1.066406-.917969.027344-1.769531.472656-2.316406 1.210938l-22.273437 30.105468c-.378907.515626-.585938 1.140626-.585938 1.785157v136.925781c0 1.65625 1.34375 3 3 3h47.578125c1.65625 0 3-1.34375 3-3v-136.925781c-.003906-.707031-.253906-1.390625-.703125-1.929688zm-5.300781 135.855469h-41.578125v-132.9375l19.421875-26.25 22.15625 26.355469zm0 0" fill="#3a312a"/><path d="m277.035156 282-22.269531 30.105469v136.925781h47.578125v-136.925781zm0 0" fill="#d7e057"/><path d="m304.640625 310.175781-25.308594-30.105469c-.59375-.703124-1.503906-1.097656-2.390625-1.066406-.917968.027344-1.773437.472656-2.320312 1.210938l-22.269532 30.105468c-.378906.515626-.585937 1.140626-.585937 1.785157v82.105469c0 1.65625 1.34375 3 3 3s3-1.34375 3-3v-81.117188l19.417969-26.253906 22.160156 26.359375v132.832031h-41.578125v-22.183594c0-1.65625-1.34375-3-3-3s-3 1.34375-3 3v25.183594c0 1.65625 1.34375 3 3 3h47.578125c1.65625 0 3-1.34375 3-3v-136.925781c0-.707031-.25-1.390625-.703125-1.929688zm0 0" fill="#3a312a"/><path d="m358.019531 282-22.269531 30.105469v136.925781h47.578125v-136.925781zm0 0" fill="#d7e057"/><path d="m385.621094 310.175781-25.304688-30.105469c-.59375-.703124-1.476562-1.097656-2.390625-1.066406-.917969.027344-1.773437.472656-2.320312 1.210938l-22.269531 30.105468c-.378907.515626-.585938 1.140626-.585938 1.785157v136.925781c0 1.65625 1.34375 3 3 3h47.578125c1.65625 0 3-1.34375 3-3v-136.925781c0-.707031-.25-1.390625-.707031-1.929688zm-5.292969 135.855469h-41.578125v-132.9375l19.417969-26.25 22.160156 26.355469zm0 0" fill="#3a312a"/><path d="m439.003906 282-22.269531 30.105469v136.925781h47.578125v-136.925781zm0 0" fill="#d7e057"/><path d="m466.605469 310.175781-25.304688-30.105469c-.59375-.703124-1.453125-1.097656-2.390625-1.066406-.917968.027344-1.769531.472656-2.316406 1.210938l-22.273438 30.105468c-.378906.515626-.585937 1.140626-.585937 1.785157v136.925781c0 1.65625 1.34375 3 3 3h47.578125c1.65625 0 3-1.34375 3-3v-136.925781c0-.707031-.25-1.390625-.707031-1.929688zm-5.292969 135.855469h-41.578125v-132.9375l19.421875-26.25 22.15625 26.355469zm0 0" fill="#3a312a"/><path d="m462.035156 341.03125h-447.949218c-6.089844 0-11.023438 4.933594-11.023438 11.023438v7.953124c0 6.089844 4.933594 11.023438 11.023438 11.023438h447.953124c6.089844 0 11.023438-4.933594 11.023438-11.023438v-7.953124c0-6.089844-4.9375-11.023438-11.027344-11.023438zm0 0" fill="#d7e057"/><path d="m462.035156 338.03125h-447.949218c-7.734376 0-14.023438 6.289062-14.023438 14.023438v7.953124c0 7.730469 6.289062 14.023438 14.023438 14.023438h447.953124c7.730469 0 14.023438-6.292969 14.023438-14.023438v-7.953124c0-7.734376-6.292969-14.023438-14.027344-14.023438zm8.027344 21.976562c0 4.421876-3.601562 8.023438-8.027344 8.023438h-447.949218c-4.425782 0-8.023438-3.601562-8.023438-8.023438v-7.957031c0-4.421875 3.597656-8.023437 8.023438-8.023437h447.953124c4.425782 0 8.023438 3.601562 8.023438 8.023437zm0 0" fill="#3a312a"/><g fill="#6ca8bf"><path d="m386.328125 374.03125h27.40625v72h-27.40625zm0 0"/><path d="m238.0625 37.730469-15 12.71875 83.738281 71.019531c4.058594-.277344 8.082031.460938 11.71875 2.382812 6.203125 3.277344 10.382813 9.378907 11.78125 17.199219.019531.140625.039063.28125.058594.417969l66.066406 56.03125c6.109375 5.183594 9.636719 12.789062 9.636719 20.804688v53.640624c0 5.835938-1.875 11.519532-5.339844 16.210938l-15.722656 21.273438.621094.742187c.460937.539063.699218 1.21875.699218 1.9375v25.921875h27.421876v-25.921875c0-.640625.199218-1.277344.578124-1.777344l21.742188-29.402343v-75.257813zm0 0"/></g></svg>